<?xml version="1.0" standalone="no"?>
<!DOCTYPE svg PUBLIC "-//W3C//DTD SVG 20010904//EN"
 "http://www.w3.org/TR/2001/REC-SVG-20010904/DTD/svg10.dtd">
<svg version="1.0" xmlns="http://www.w3.org/2000/svg"
 width="260.000000pt" height="260.000000pt" viewBox="0 0 260.000000 260.000000"
 preserveAspectRatio="xMidYMid meet">
<metadata>
Created by potrace 1.14, written by Peter Selinger 2001-2017
</metadata>
<g transform="translate(0.000000,260.000000) scale(0.100000,-0.100000)"
fill="#000000" stroke="none">
<path d="M0 2391 c0 -158 3 -211 13 -214 10 -4 10 -6 0 -6 -19 -1 -19 -407 0
-414 9 -4 9 -8 -2 -15 -12 -9 -12 -13 -2 -26 9 -11 10 -16 2 -16 -8 0 -11 -61
-11 -209 0 -209 0 -210 22 -214 l23 -4 -22 -2 -23 -1 0 -635 0 -635 434 0
c325 1 436 4 440 13 5 9 7 9 12 0 4 -10 194 -13 860 -13 l854 0 0 1174 c0
1167 0 1174 -20 1169 -23 -6 -39 22 -22 39 8 8 15 8 27 -2 13 -11 15 -9 15 14
0 14 -3 26 -7 26 -32 1 -39 50 -7 50 11 0 14 16 14 65 l0 65 -1300 0 -1300 0
0 -209z m1250 130 c0 -5 -7 -12 -16 -15 -22 -9 -24 -8 -24 9 0 8 9 15 20 15
11 0 20 -4 20 -9z m1180 -16 c0 -9 -7 -18 -16 -22 -18 -7 -39 11 -30 26 11 17
46 13 46 -4z m-1826 -31 c3 -8 2 -12 -4 -9 -6 3 -10 10 -10 16 0 14 7 11 14
-7z m1784 -31 c5 -17 -26 -29 -40 -15 -6 6 -7 15 -3 22 9 14 37 9 43 -7z m82
-63 c0 -13 -7 -20 -20 -20 -13 0 -20 7 -20 20 0 13 7 20 20 20 13 0 20 -7 20
-20z m-62 -53 c2 -11 -3 -17 -17 -17 -23 0 -35 15 -26 31 10 15 39 6 43 -14z
m-1623 -127 c3 -5 2 -10 -4 -10 -5 0 -13 5 -16 10 -3 6 -2 10 4 10 5 0 13 -4
16 -10z m1785 -5 c0 -8 -9 -15 -20 -15 -11 0 -20 7 -20 15 0 8 9 15 20 15 11
0 20 -7 20 -15z m-1640 -69 c0 -11 -33 -36 -40 -31 -15 9 1 35 21 35 10 0 19
-2 19 -4z m-870 -16 c0 -5 -4 -10 -10 -10 -5 0 -10 5 -10 10 0 6 5 10 10 10 6
0 10 -4 10 -10z m50 -10 c0 -5 -4 -10 -10 -10 -5 0 -10 5 -10 10 0 6 5 10 10
10 6 0 10 -4 10 -10z m-60 -26 c0 -8 -4 -12 -10 -9 -5 3 -10 10 -10 16 0 5 5
9 10 9 6 0 10 -7 10 -16z m2210 -3 c0 -24 -25 -34 -40 -16 -15 18 -5 35 21 35
12 0 19 -7 19 -19z m-1380 -17 c0 -21 -17 -17 -23 5 -3 14 -1 18 9 14 8 -3 14
-11 14 -19z m-790 6 c0 -5 -4 -10 -10 -10 -5 0 -10 5 -10 10 0 6 5 10 10 10 6
0 10 -4 10 -10z m50 0 c0 -5 -4 -10 -10 -10 -5 0 -10 5 -10 10 0 6 5 10 10 10
6 0 10 -4 10 -10z m740 -50 c0 -5 -4 -10 -10 -10 -5 0 -10 5 -10 10 0 6 5 10
10 10 6 0 10 -4 10 -10z m325 -122 c37 -44 31 -50 -27 -28 -53 20 -98 59 -98
85 0 22 96 -22 125 -57z m310 16 c-16 -24 -85 -63 -112 -64 -20 0 -15 25 10
48 29 28 111 64 115 51 2 -5 -4 -21 -13 -35z m-1056 -41 c0 -5 -4 -17 -9 -28
-8 -18 -9 -17 -9 8 -1 15 4 27 9 27 6 0 10 -3 9 -7z m-429 -13 c0 -5 -4 -10
-10 -10 -5 0 -10 5 -10 10 0 6 5 10 10 10 6 0 10 -4 10 -10z m380 -4 c0 -3 -4
-8 -10 -11 -5 -3 -10 -1 -10 4 0 6 5 11 10 11 6 0 10 -2 10 -4z m-350 -16 c0
-5 -4 -10 -10 -10 -5 0 -10 5 -10 10 0 6 5 10 10 10 6 0 10 -4 10 -10z m440
-10 c0 -5 -2 -10 -4 -10 -3 0 -8 5 -11 10 -3 6 -1 10 4 10 6 0 11 -4 11 -10z
m-380 -16 c0 -8 -5 -12 -10 -9 -6 4 -8 11 -5 16 9 14 15 11 15 -7z m250 -24
c0 -5 -5 -10 -11 -10 -5 0 -7 5 -4 10 3 6 8 10 11 10 2 0 4 -4 4 -10z m40 -4
c0 -3 -4 -8 -10 -11 -5 -3 -10 -1 -10 4 0 6 5 11 10 11 6 0 10 -2 10 -4z m30
-6 c0 -5 -4 -10 -10 -10 -5 0 -10 5 -10 10 0 6 5 10 10 10 6 0 10 -4 10 -10z
m26 -17 c-10 -10 -19 5 -10 18 6 11 8 11 12 0 2 -7 1 -15 -2 -18z m44 -3 c0
-5 -4 -10 -10 -10 -5 0 -10 5 -10 10 0 6 5 10 10 10 6 0 10 -4 10 -10z m-440
-4 c0 -11 -19 -15 -25 -6 -3 5 1 10 9 10 9 0 16 -2 16 -4z m50 -37 c0 -5 -7
-9 -15 -9 -15 0 -20 12 -9 23 8 8 24 -1 24 -14z m-40 -20 c0 -5 -4 -9 -10 -9
-5 0 -10 7 -10 16 0 8 5 12 10 9 6 -3 10 -10 10 -16z m300 1 c0 -5 -5 -10 -11
-10 -5 0 -7 5 -4 10 3 6 8 10 11 10 2 0 4 -4 4 -10z m88 -17 c-8 -10 -14 -11
-16 -4 -2 6 -8 8 -13 5 -13 -8 -42 4 -35 14 3 4 21 6 41 4 30 -4 34 -6 23 -19z
m-338 -4 c0 -5 -4 -9 -10 -9 -5 0 -10 7 -10 16 0 8 5 12 10 9 6 -3 10 -10 10
-16z m-95 1 c3 -5 -1 -10 -10 -10 -9 0 -13 5 -10 10 3 6 8 10 10 10 2 0 7 -4
10 -10z m335 -20 c0 -5 -5 -10 -11 -10 -5 0 -7 5 -4 10 3 6 8 10 11 10 2 0 4
-4 4 -10z m80 -15 c0 -8 -4 -15 -10 -15 -5 0 -10 7 -10 15 0 8 5 15 10 15 6 0
10 -7 10 -15z m160 5 c0 -5 -4 -10 -10 -10 -5 0 -10 5 -10 10 0 6 5 10 10 10
6 0 10 -4 10 -10z m-190 -26 c0 -8 -4 -14 -9 -14 -11 0 -22 26 -14 34 9 9 23
-3 23 -20z m-170 -22 c0 -12 -3 -13 -12 -4 -8 8 -17 8 -32 1 -17 -8 -16 -6 4
10 27 21 40 19 40 -7z m410 18 c0 -5 -4 -10 -10 -10 -5 0 -10 5 -10 10 0 6 5
10 10 10 6 0 10 -4 10 -10z m-50 -16 c0 -8 -5 -12 -10 -9 -6 4 -8 11 -5 16 9
14 15 11 15 -7z m85 -23 c3 -5 1 -12 -5 -16 -5 -3 -10 1 -10 9 0 18 6 21 15 7z
m-65 -21 c0 -5 -4 -10 -10 -10 -5 0 -10 5 -10 10 0 6 5 10 10 10 6 0 10 -4 10
-10z m-100 -20 c0 -5 -5 -10 -11 -10 -5 0 -7 5 -4 10 3 6 8 10 11 10 2 0 4 -4
4 -10z m70 -20 c0 -5 -4 -10 -10 -10 -5 0 -10 5 -10 10 0 6 5 10 10 10 6 0 10
-4 10 -10z m-40 -25 c0 -8 5 -15 11 -15 5 0 7 -5 3 -12 -5 -7 -11 -5 -21 7
-16 22 -17 35 -3 35 6 0 10 -7 10 -15z m-40 -15 c0 -5 -4 -10 -10 -10 -5 0
-10 5 -10 10 0 6 5 10 10 10 6 0 10 -4 10 -10z m140 0 c0 -5 -5 -10 -11 -10
-5 0 -7 5 -4 10 3 6 8 10 11 10 2 0 4 -4 4 -10z m-40 -30 c0 -5 -4 -10 -10
-10 -5 0 -10 5 -10 10 0 6 5 10 10 10 6 0 10 -4 10 -10z m-250 -20 c0 -5 -7
-10 -15 -10 -8 0 -15 5 -15 10 0 6 7 10 15 10 8 0 15 -4 15 -10z m-138 -170
c-2 -55 -12 -84 -12 -37 0 17 -5 27 -15 27 -8 0 -15 5 -15 10 0 6 7 10 15 10
8 0 15 7 15 15 0 8 -4 15 -10 15 -5 0 -10 5 -10 11 0 6 8 9 18 7 14 -3 17 -13
14 -58z m-197 -30 c3 -5 2 -10 -4 -10 -5 0 -13 5 -16 10 -3 6 -2 10 4 10 5 0
13 -4 16 -10z m182 -72 c-3 -7 -5 -2 -5 12 0 14 2 19 5 13 2 -7 2 -19 0 -25z
m-27 13 c0 -5 -9 -7 -20 -4 -11 3 -20 7 -20 9 0 2 9 4 20 4 11 0 20 -4 20 -9z
m-130 -36 c11 -13 8 -15 -14 -15 -25 0 -33 10 -19 23 10 11 19 8 33 -8z m160
-21 c0 -28 -2 -29 -39 -9 -25 13 -30 13 -41 0 -13 -16 -34 -10 -25 6 4 5 -4
14 -17 19 -18 8 -12 10 30 7 29 -2 55 0 58 4 9 16 34 -4 34 -27z m-131 -55
c17 -6 31 -17 31 -24 0 -12 -4 -12 -26 0 -15 7 -33 11 -40 8 -14 -5 -19 8 -7
20 8 9 4 9 42 -4z m131 -6 c0 -6 -9 -9 -20 -6 -30 8 -33 21 -5 19 14 0 25 -6
25 -13z m-140 -63 c0 -5 -4 -10 -10 -10 -5 0 -10 5 -10 10 0 6 5 10 10 10 6 0
10 -4 10 -10z m-50 -10 c0 -5 -4 -10 -10 -10 -5 0 -10 5 -10 10 0 6 5 10 10
10 6 0 10 -4 10 -10z m130 -82 c0 -4 -4 -8 -9 -8 -6 0 -12 4 -15 8 -3 5 1 9 9
9 8 0 15 -4 15 -9z m308 -323 c19 -60 41 -114 48 -120 9 -7 12 -25 10 -55 -3
-25 -5 -53 -5 -62 -1 -10 -9 -19 -18 -19 -17 -1 -17 -2 0 -6 35 -9 19 -33 -22
-33 -40 0 -40 0 -43 43 l-3 42 -47 3 c-43 3 -48 1 -48 -17 0 -14 -6 -21 -20
-21 -16 0 -20 -7 -20 -30 0 -28 -3 -30 -35 -30 -32 0 -35 2 -35 30 0 20 5 30
15 30 12 0 15 13 15 59 0 54 -2 60 -22 64 -16 3 -14 4 5 2 15 -1 27 3 27 9 0
6 4 5 9 -3 8 -12 31 51 77 212 4 14 14 17 42 15 l36 -3 34 -110z m216 22 c41
-106 41 -107 21 -107 -8 0 -15 -4 -15 -10 0 -5 9 -10 20 -10 11 0 20 5 20 10
0 6 5 10 11 10 6 0 8 -9 4 -22 -3 -13 -3 -18 2 -12 4 6 17 14 28 19 19 8 19 9
-2 12 -22 4 -23 9 -23 104 l0 99 40 0 40 0 0 -60 c0 -38 4 -60 11 -60 8 0 8
-5 -1 -15 -9 -11 -10 -38 -5 -99 6 -75 5 -85 -12 -95 -17 -10 -17 -12 0 -21
29 -18 21 -48 -15 -58 -51 -13 -82 -1 -86 34 -2 16 -10 36 -17 44 -19 21 -57
117 -65 165 -6 30 -8 13 -10 -67 -1 -60 -4 -111 -5 -115 -1 -5 -6 -22 -10 -40
-5 -23 -14 -32 -34 -36 -14 -3 -29 0 -33 6 -11 18 -9 155 2 162 17 10 12 35
-6 28 -14 -5 -14 -3 1 26 9 19 16 52 15 79 -1 26 -1 64 -1 85 l1 37 44 0 44 0
36 -93z m401 78 c41 -20 55 -51 55 -125 0 -47 -3 -59 -17 -63 -13 -3 -11 -5 6
-6 21 -1 23 -4 17 -32 -3 -17 -6 -53 -6 -80 0 -42 -3 -49 -20 -49 -15 0 -20
-7 -20 -25 0 -25 -1 -25 -84 -25 -65 0 -85 3 -90 15 -3 8 -12 15 -21 15 -12 0
-15 13 -15 64 0 42 4 66 13 69 7 3 4 6 -7 6 -17 1 -18 9 -14 95 4 100 16 127
63 147 33 13 105 10 140 -6z m230 -77 c40 -98 56 -119 89 -117 19 2 19 2 -2 6
-22 4 -23 7 -20 101 l3 97 38 3 37 3 0 -98 c0 -54 3 -128 7 -165 5 -59 4 -68
-11 -68 -9 0 -16 -4 -16 -10 0 -5 7 -10 16 -10 11 0 14 -8 12 -27 -3 -24 -8
-29 -37 -31 -52 -5 -81 5 -81 29 0 11 -16 53 -35 93 -22 46 -35 90 -36 117 -1
37 -3 34 -9 -21 -4 -36 -10 -98 -14 -138 -3 -41 -8 -78 -12 -83 -3 -5 -19 -9
-36 -9 l-30 0 5 128 c4 70 7 164 7 210 l0 82 44 0 43 0 38 -92z m415 -31 c0
-110 2 -127 20 -147 23 -26 22 -23 14 -44 -3 -9 -11 -16 -18 -16 -7 0 -10 -16
-8 -45 l4 -45 -36 0 c-36 0 -36 1 -36 41 l0 41 -63 -6 c-34 -4 -71 -4 -82 0
-18 7 -18 8 1 15 17 7 17 8 2 8 -25 1 -22 23 12 91 26 52 28 59 12 63 -9 2 3
2 28 -1 25 -2 46 -6 48 -7 2 -2 -6 -21 -17 -44 -28 -54 -27 -61 12 -61 l32 0
-3 55 c-3 47 -1 55 14 55 9 0 14 3 11 7 -4 3 -27 5 -52 5 -25 -1 -45 0 -45 2
0 2 16 38 35 80 l34 76 41 0 40 0 0 -123z m283 112 c27 -14 80 -69 66 -69 -5
0 -8 -12 -7 -27 3 -26 0 -28 -33 -31 -33 -3 -37 0 -42 27 -7 32 -34 46 -72 37
-26 -7 -35 -31 -35 -100 0 -35 -5 -53 -17 -62 -17 -13 -17 -13 0 -14 14 0 17
-9 17 -50 l0 -51 58 3 c50 3 57 6 60 26 2 12 -1 22 -7 22 -17 0 -13 37 5 44
48 19 71 4 65 -42 -1 -8 3 -20 10 -28 16 -19 4 -44 -22 -44 -12 0 -23 -8 -26
-19 -6 -22 -88 -35 -153 -25 -44 7 -54 30 -17 37 16 3 13 5 -10 6 -28 1 -33 5
-33 26 0 16 -6 25 -15 25 -18 0 -18 -9 -4 126 12 124 27 160 72 179 39 17 111
19 140 4z m337 -8 c0 -11 9 -23 20 -26 28 -9 28 -55 0 -55 -11 0 -23 7 -26 15
-4 8 -16 15 -28 15 -17 0 -22 -6 -21 -27 0 -21 -5 -28 -20 -28 -15 0 -20 7
-20 28 1 19 -4 27 -17 27 -15 0 -18 -8 -18 -45 l0 -45 54 0 c52 0 54 -1 58
-30 6 -38 4 -40 -48 -40 l-42 0 -4 -47 c-3 -27 -1 -55 3 -63 7 -13 8 -13 9 0
0 13 1 13 10 0 7 -11 10 -11 10 -2 0 8 5 10 13 5 12 -7 16 -8 48 -11 11 -2 14
-10 11 -31 -4 -28 -4 -28 -95 -34 -50 -3 -92 -5 -93 -4 -1 1 -4 46 -7 100 -6
87 -5 97 11 98 16 1 16 2 0 6 -15 4 -18 16 -18 63 0 46 -4 61 -17 69 -17 10
-17 10 0 11 13 0 17 8 17 35 l0 35 105 0 c97 0 105 -1 105 -19z m-1850 -11 c0
-5 -4 -10 -10 -10 -5 0 -10 5 -10 10 0 6 5 10 10 10 6 0 10 -4 10 -10z m0 -45
c0 -8 -4 -15 -10 -15 -5 0 -10 7 -10 15 0 8 5 15 10 15 6 0 10 -7 10 -15z
m135 -575 c3 -5 -1 -10 -10 -10 -9 0 -13 5 -10 10 3 6 8 10 10 10 2 0 7 -4 10
-10z m375 -10 c0 -5 -5 -10 -11 -10 -5 0 -7 5 -4 10 3 6 8 10 11 10 2 0 4 -4
4 -10z"/>
<path d="M382 500 c-7 -30 -15 -65 -18 -77 -5 -20 -2 -23 20 -23 14 0 26 5 26
11 0 5 5 7 10 4 14 -9 12 12 -8 80 l-18 59 -12 -54z"/>
<path d="M981 596 c-17 -20 -25 -112 -16 -190 l7 -66 44 0 c30 0 46 5 50 15 9
23 -13 224 -26 241 -16 18 -44 18 -59 0z"/>
<path d="M1320 470 c0 -5 9 -10 20 -10 11 0 20 5 20 10 0 6 -9 10 -20 10 -11
0 -20 -4 -20 -10z"/>
<path d="M2038 603 c6 -2 18 -2 25 0 6 3 1 5 -13 5 -14 0 -19 -2 -12 -5z"/>
</g>
</svg>
